<svg width="33" height="37" viewBox="0 0 33 37" fill="none" xmlns="http://www.w3.org/2000/svg">
<path fill-rule="evenodd" clip-rule="evenodd" d="M24.0308 31.5194C23.5823 29.8773 22.2031 27.9613 21.137 25.8858C22.0508 27.6648 22.9647 29.4438 24.0308 31.5194ZM26.6791 31.2923C25.1476 29.0798 24.2422 26.5483 23.3368 24.0167C22.5669 23.2867 21.9407 23.6057 21.3146 23.9248C20.2147 24.8593 19.1232 25.0413 20.3586 25.9083C21.8901 28.1208 22.9562 30.1964 23.7093 32.4314C24.0224 32.2719 24.6485 31.9529 24.9615 31.7933C25.5877 31.4743 25.7484 31.0183 26.6791 31.2923ZM20.0708 23.8103C19.6224 22.1683 18.2432 20.2523 17.177 18.1767C18.0909 19.9558 19.0047 21.7348 20.0708 23.8103ZM15.9586 15.8047C15.6624 14.4592 14.1309 12.2467 13.2171 10.4677C14.1309 12.2467 14.8924 13.7292 16.1109 16.1012C16.1109 16.1012 16.1109 16.1012 15.9586 15.8047ZM18.6069 15.5777C17.2277 13.6616 16.3223 11.1301 15.2646 8.30208C14.6469 7.86858 14.0208 8.1876 13.3947 8.50662C12.2948 9.44116 11.2033 9.62319 12.4386 10.4902C13.8178 12.4062 15.0363 14.7782 15.7894 17.0132C16.1024 16.8537 16.7285 16.5347 17.0416 16.3752C17.5154 15.7597 17.8285 15.6002 18.6069 15.5777ZM11.9986 8.09564C11.7024 6.75012 10.1709 4.53761 9.25708 2.75859C10.1709 4.53761 10.9325 6.02012 12.1509 8.39215L11.9986 8.09564ZM14.6469 7.86858C13.2677 5.95257 12.3623 3.42104 11.3046 0.593005C10.6869 0.15951 10.0608 0.478531 9.43472 0.797551C8.3348 1.73209 7.09102 1.61762 8.47866 2.78111C9.85786 4.69712 11.0763 7.06914 11.8294 9.30417C12.1425 9.14466 12.7686 8.82564 12.9293 8.36963C13.5554 8.05061 13.8685 7.8911 14.6469 7.86858ZM13.9279 16.4653C12.6841 16.3508 11.7534 16.0768 10.5096 15.9623C11.7534 16.0768 12.5318 16.0543 13.9279 16.4653C12.0665 15.9173 10.6704 15.5063 8.96124 15.2549C10.3573 15.6658 11.6011 15.7803 13.4626 16.3283C11.4488 15.4838 9.73966 15.2323 8.19126 14.5249C9.58735 14.9358 10.9834 15.3468 12.9972 16.1913C11.2965 15.1873 9.43504 14.6393 7.57359 14.0914C9.43504 14.6393 11.4488 15.4838 13.9279 16.4653C14.3933 16.6023 14.3933 16.6023 13.9279 16.4653ZM13.3018 16.7843C13.3018 16.7843 12.9888 16.9438 12.8364 16.6473C10.5012 16.7149 8.47899 16.6229 6.60909 16.8274C8.31824 17.0789 10.1881 16.8744 12.058 16.6698C10.1881 16.8744 8.6313 16.9194 7.22676 17.2609C8.7836 17.2159 10.6535 17.0114 12.5234 16.8068C10.9666 16.8518 9.56202 17.1934 8.15749 17.5349C10.0274 17.3304 11.4319 16.9888 12.9888 16.9438C11.8973 17.1258 10.8058 17.3079 9.71433 17.4899C10.8058 17.3079 11.8973 17.1258 12.9888 16.9438C13.3018 16.7843 13.3018 16.7843 13.3018 16.7843ZM14.2156 18.5633C13.5895 18.8823 13.1157 19.4979 12.1766 19.9764C12.8027 19.6574 13.2765 19.0418 14.2156 18.5633C13.2765 19.0418 12.1766 19.9764 11.2374 20.4549C12.1766 19.9764 12.9634 19.2013 13.9026 18.7228C12.6504 19.3609 11.3981 19.9989 10.2982 20.9334C11.0851 20.1584 12.3373 19.5204 13.5895 18.8823C12.3373 19.5204 11.0851 20.1584 9.83286 20.7965C11.0851 20.1584 12.4981 19.0644 14.0633 18.2668C14.3764 18.1073 14.5287 18.4038 14.2156 18.5633ZM14.368 18.8598C14.0549 19.0193 14.0549 19.0193 14.0549 19.0193C12.7942 20.4099 11.8466 21.6409 11.2121 22.7125C11.8466 21.6409 12.7942 20.4099 13.5811 19.6348C12.9465 20.7064 12.1597 21.4814 11.5251 22.5529C12.1597 21.4814 13.1073 20.2504 13.7418 19.1788C13.1073 20.2504 12.7858 21.1624 12.312 21.7779C12.7858 21.1624 13.4203 20.0909 14.0549 19.0193C13.7334 19.9313 13.2596 20.5469 13.0988 21.0029C13.5727 20.3874 13.5811 19.6348 14.0549 19.0193L14.368 18.8598ZM15.1548 18.0848C15.4679 17.9253 15.4679 17.9253 15.7809 17.7658C15.9332 18.0623 15.9332 18.0623 16.3986 18.1993C17.9301 20.4118 18.9963 22.4873 19.7493 24.7223C20.0624 24.5628 20.6885 24.2438 21.0016 24.0843C21.4754 23.4687 21.7884 23.3092 22.5669 23.2867C21.1876 21.3707 20.2823 18.8392 19.2246 16.0111C18.6069 15.5777 17.9808 15.8967 17.3547 16.2157C16.5678 16.9907 15.7894 17.0132 15.6286 17.4693C15.4763 17.1728 15.011 17.0358 14.8586 16.7393C14.7063 16.4428 14.241 16.3058 13.471 15.5758C11.4572 14.7313 8.19971 13.7723 6.49056 13.5209C6.94748 14.4104 9.4266 15.3918 11.4404 16.2363C9.41816 16.1444 6.76984 16.3714 5.20456 17.169C6.75296 17.8765 12.5149 17.5593 14.2325 17.0583C14.2325 17.0583 14.5456 16.8988 14.6979 17.1953C15.1633 17.3323 15.6286 17.4693 15.7809 17.7658C15.4679 17.9253 15.1548 18.0848 14.6895 17.9478C14.6895 17.9478 14.3764 18.1073 13.7503 18.4263C12.0327 18.9274 9.99361 20.3404 8.89369 21.275C9.82442 21.549 11.7028 20.5919 13.1157 19.4979C12.1681 20.7289 11.0598 22.416 10.4252 23.4875C11.8297 23.146 14.3595 19.6123 14.5287 18.4038C14.8418 18.2443 14.8418 18.2443 15.1548 18.0848Z" fill="#468E0D"/>
<path d="M28.078 10.0761C24.9623 21.1824 13.4102 25.2168 2.96059 20.8976C0.372159 19.9958 -0.394784 20.8976 0.180423 23.2708C15.2796 43.5849 40.6846 23.9827 30.7623 9.60147C30.954 8.72341 31.0619 7.85721 31.1697 6.99101C31.2776 6.12481 31.3854 5.25862 31.5772 4.38055C30.6664 2.24472 27.7424 2.95666 27.9821 4.04831L28.078 10.0761Z" fill="#FFEE2E"/>
<path d="M28.078 10.0761C24.9623 21.1824 13.4102 25.2168 2.96059 20.8976C0.372159 19.9958 -0.394784 20.8976 0.180423 23.2708C15.2796 43.5849 40.6846 23.9827 30.7623 9.60147C30.954 8.72341 31.0619 7.85721 31.1697 6.99101C31.2776 6.12481 31.3854 5.25862 31.5772 4.38055C30.6664 2.24472 27.7424 2.95666 27.9821 4.04831L28.078 10.0761Z" stroke="#468E0D"/>
</svg>
