<svg width="48" height="38" viewBox="0 0 48 38" fill="none" xmlns="http://www.w3.org/2000/svg">
<path fill-rule="evenodd" clip-rule="evenodd" d="M12.2998 9.30793C12.2029 9.39219 12.1061 9.47637 12.0113 9.56275C11.7922 9.75803 11.5767 9.95651 11.3649 10.1575C9.53949 11.8894 7.9132 13.8767 6.74293 16.1089C5.57112 18.344 4.87237 20.8223 4.93195 23.2684C4.95887 24.3718 5.14398 25.5455 5.78778 26.5375C5.89866 26.7085 6.02312 26.8722 6.16047 27.0263L8.46496 29.6547L8.48737 29.6803C8.7523 29.9825 9.06892 30.2463 9.43615 30.4518C9.98801 30.7608 10.643 30.9272 11.3376 30.8782C11.9396 30.8358 12.5061 30.6373 13.009 30.3721C13.5096 30.108 13.9447 29.7811 14.3374 29.4508C15.1217 28.7909 15.7582 28.122 16.4335 27.6923C17.6399 26.9248 19.2011 26.7206 20.7741 26.7047C22.3565 26.6888 24.054 26.837 25.8373 26.4415C28.0073 25.9602 30.0207 24.6823 31.4522 22.9443C32.8819 21.2082 33.7013 19.0622 33.8052 16.9428C33.9144 14.7157 33.2341 12.5505 31.8961 10.8842C31.8192 10.7884 31.7396 10.6951 31.6585 10.6031L29.3317 7.94918C28.0028 6.42844 26.1316 5.40024 24.0536 5.06324C21.7608 4.69139 19.3364 5.16364 17.1585 6.13589C15.3765 6.93141 13.76 8.04584 12.3011 9.30823L12.2998 9.30793ZM13.311 10.3899C13.4142 10.3003 13.5193 10.2129 13.624 10.1255C14.8833 9.07879 16.2409 8.17794 17.6894 7.53127C19.6155 6.67146 21.7292 6.27506 23.6534 6.58711C25.49 6.88496 27.1644 7.84567 28.2844 9.2405C29.4047 10.6355 29.9848 12.481 29.8933 14.3475C29.8062 16.1229 29.1085 17.9396 27.9267 19.3745C26.7466 20.8074 25.0591 21.8737 23.2937 22.2653C21.83 22.5899 20.2479 22.4725 18.5685 22.4894C16.8797 22.5065 14.9894 22.6933 13.3308 23.7487C12.4009 24.3404 11.7164 25.0812 11.0422 25.6484C10.7055 25.9315 10.37 26.1772 10.0317 26.3557C9.69566 26.5329 9.35027 26.6447 9.03534 26.6669C8.67477 26.6923 8.294 26.6025 7.96885 26.4205C7.64105 26.237 7.3547 25.9563 7.13625 25.6197C6.69692 24.9427 6.5261 24.0375 6.50281 23.0816C6.45074 20.9456 7.06643 18.7267 8.12556 16.7066C9.18617 14.6836 10.6843 12.8425 12.3978 11.2166C12.6961 10.9338 13.0004 10.6576 13.3111 10.3899L13.311 10.3899ZM14.2355 11.4554C13.9461 11.703 13.6628 11.9617 13.3832 12.2271C11.7764 13.7517 10.4005 15.4536 9.44437 17.2772C8.49272 19.0923 7.95621 21.0638 8.00105 22.904C8.02091 23.7195 8.17825 24.3685 8.42258 24.745C8.54118 24.9278 8.68592 25.0574 8.80277 25.1229C8.91183 25.1839 9.0311 25.2007 9.07307 25.1978C9.11476 25.1947 9.24938 25.1657 9.42595 25.0725C9.60933 24.9758 9.84973 24.8078 10.1332 24.5694C10.7025 24.0905 11.4327 23.2811 12.6052 22.5351C14.695 21.2054 16.8992 21.0348 18.6983 21.0166C20.4703 20.9988 21.9424 21.0869 23.1013 20.8299C24.481 20.5239 25.8578 19.6592 26.7983 18.5172C27.7437 17.3693 28.3254 15.8667 28.3964 14.4194C28.471 12.8967 27.9862 11.3559 27.0737 10.2196C26.1616 9.08373 24.7652 8.28298 23.2719 8.04078C21.6993 7.78576 19.8818 8.10981 18.1959 8.86243C16.9198 9.43207 15.6907 10.2413 14.5254 11.2102C14.4282 11.2907 14.3316 11.3726 14.2355 11.4554L14.2355 11.4554ZM21.0967 13.5235C21.6515 13.0412 22.3132 12.7267 22.9364 12.6491C23.5595 12.5715 24.0931 12.7372 24.4196 13.1096C24.7462 13.4821 24.839 14.0309 24.6777 14.6352C24.5163 15.2396 24.1141 15.85 23.5593 16.3323C23.2847 16.5711 22.9808 16.7712 22.6652 16.9212C22.3495 17.0712 22.0282 17.1682 21.7196 17.2067C21.4111 17.2451 21.1213 17.2242 20.8667 17.1452C20.6122 17.0662 20.398 16.9306 20.2363 16.7462C20.0746 16.5617 19.9686 16.3321 19.9243 16.0703C19.8801 15.8085 19.8984 15.5198 19.9783 15.2205C20.0582 14.9213 20.1981 14.6174 20.39 14.3262C20.5819 14.035 20.822 13.7622 21.0967 13.5235Z" fill="#EE8383"/>
<path d="M42.8303 12.8574C40.4007 14.9754 40.1013 19.0907 40.1013 19.0907C17.1671 14.1889 12.5275 31.5279 12.5275 31.5279C12.5275 31.5279 27.6555 41.2789 41.35 22.3157C41.35 22.3157 44.3461 25.1664 47.5751 25.1119C47.5751 25.1119 44.7704 22.9291 43.4967 19.6395C42.2235 16.3502 42.8303 12.8574 42.8303 12.8574ZM18.3015 29.1037C17.7634 29.3102 17.1398 28.9935 16.9087 28.3965C16.6775 27.7994 16.9263 27.1483 17.4645 26.9417C18.0026 26.7351 18.626 27.0515 18.8572 27.6485C19.0883 28.2455 18.8397 28.8971 18.3015 29.1037ZM23.4789 31.8055C23.4523 31.9377 23.3664 32.0344 23.2575 32.0761C23.1877 32.103 23.1073 32.1067 23.0264 32.0808C22.8221 32.017 22.6923 31.789 22.7372 31.5725C23.5457 27.6784 20.6425 25.8618 20.5192 25.7862C20.3308 25.672 20.2529 25.4213 20.3452 25.2264C20.4367 25.0314 20.663 24.9649 20.8518 25.0781C20.8876 25.1 24.4182 27.2824 23.4789 31.8055Z" fill="#7A7871"/>
</svg>
